# xmcd
#
# Track frame offsets: 
#        150
#        20644
#        40116
#
# Disc length: 804 seconds
#
# Revision: 1
# Processed by: cddbd v1.5.2PL0 Copyright (c) Steve Scherf et al.
# Submitted via: ExactAudioCopy v1.3
#
DISCID=1c032203
DTITLE=Gerardo Gandini y Liliana Herrero - Tres tangos errantes
DYEAR=2003
DGENRE=Tango
TTITLE0=Volvió una noche - Gardel-Le Pera - 1935
TTITLE1=Soledad - Gardel-Le Pera - 1935
TTITLE2=Por una cabeza - Gardel-Le Pera - 1934
EXTD=YEAR: 1994
EXTT0=
EXTT1=
EXTT2=
PLAYORDER=
